<?xml version="1.0" encoding="UTF-8"?>
<svg xmlns="http://www.w3.org/2000/svg" xmlns:xlink="http://www.w3.org/1999/xlink" viewBox="0 0 20 20" width="20px" height="20px">
<g id="surface196521503">
<path style=" stroke:none;fill-rule:nonzero;fill:rgb(85.490197%,83.137256%,83.137256%);fill-opacity:1;" d="M 5.601562 1.601562 C 3.394531 1.601562 1.601562 3.394531 1.601562 5.601562 L 1.601562 14.398438 C 1.601562 16.605469 3.394531 18.398438 5.601562 18.398438 L 14.398438 18.398438 C 16.605469 18.398438 18.398438 16.605469 18.398438 14.398438 L 18.398438 5.601562 C 18.398438 3.394531 16.605469 1.601562 14.398438 1.601562 Z M 5.601562 2.398438 L 14.398438 2.398438 C 16.171875 2.398438 17.601562 3.828125 17.601562 5.601562 L 17.601562 14.398438 C 17.601562 16.171875 16.171875 17.601562 14.398438 17.601562 L 5.601562 17.601562 C 3.828125 17.601562 2.398438 16.171875 2.398438 14.398438 L 2.398438 5.601562 C 2.398438 3.828125 3.828125 2.398438 5.601562 2.398438 Z M 5.199219 6 C 4.542969 6 4 6.542969 4 7.199219 L 4 12.800781 C 4 13.457031 4.542969 14 5.199219 14 L 14.800781 14 C 15.457031 14 16 13.457031 16 12.800781 L 16 7.199219 C 16 6.542969 15.457031 6 14.800781 6 Z M 5.367188 6.800781 L 14.632812 6.800781 L 11.070312 10.355469 C 10.472656 10.953125 9.519531 10.953125 8.921875 10.355469 Z M 15.199219 7.363281 L 15.199219 12.636719 L 12.5625 10 Z M 4.800781 7.367188 L 7.433594 10 L 4.800781 12.632812 Z M 11.996094 10.566406 L 14.632812 13.199219 L 5.367188 13.199219 L 8 10.566406 L 8.355469 10.921875 C 9.257812 11.824219 10.734375 11.824219 11.636719 10.921875 Z M 11.996094 10.566406 "/>
</g>
</svg>
