<?xml version="1.0" encoding="UTF-8"?>
<svg xmlns="http://www.w3.org/2000/svg" xmlns:xlink="http://www.w3.org/1999/xlink" viewBox="0 0 20 20" width="20px" height="20px">
<g id="surface196370187">
<path style=" stroke:none;fill-rule:nonzero;fill:rgb(85.490197%,83.137256%,83.137256%);fill-opacity:1;" d="M 5.601562 1.597656 C 3.394531 1.597656 1.601562 3.390625 1.601562 5.597656 L 1.601562 14.394531 C 1.601562 16.601562 3.394531 18.394531 5.601562 18.394531 L 14.398438 18.394531 C 16.605469 18.394531 18.398438 16.601562 18.398438 14.394531 L 18.398438 5.597656 C 18.398438 3.390625 16.605469 1.597656 14.398438 1.597656 Z M 5.601562 2.394531 L 14.398438 2.394531 C 16.171875 2.394531 17.601562 3.824219 17.601562 5.597656 L 17.601562 14.394531 C 17.601562 16.167969 16.171875 17.597656 14.398438 17.597656 L 5.601562 17.597656 C 3.828125 17.597656 2.398438 16.167969 2.398438 14.394531 L 2.398438 5.597656 C 2.398438 3.824219 3.828125 2.394531 5.601562 2.394531 Z M 7.21875 4.414062 C 6.402344 4.378906 5.78125 4.691406 5.390625 5.0625 C 5.195312 5.25 5.054688 5.449219 4.957031 5.636719 C 4.859375 5.824219 4.800781 5.976562 4.800781 6.175781 C 4.800781 6.160156 4.792969 6.253906 4.792969 6.363281 C 4.789062 6.46875 4.789062 6.617188 4.800781 6.792969 C 4.820312 7.148438 4.878906 7.625 5.039062 8.195312 C 5.355469 9.328125 6.074219 10.816406 7.628906 12.371094 C 9.183594 13.925781 10.671875 14.644531 11.804688 14.960938 C 12.375 15.121094 12.851562 15.179688 13.207031 15.199219 C 13.382812 15.210938 13.527344 15.210938 13.636719 15.207031 C 13.746094 15.207031 13.839844 15.199219 13.824219 15.199219 C 14.023438 15.199219 14.175781 15.140625 14.363281 15.042969 C 14.550781 14.945312 14.75 14.804688 14.9375 14.609375 C 15.308594 14.21875 15.621094 13.597656 15.585938 12.78125 C 15.570312 12.390625 15.351562 12.042969 15.03125 11.839844 C 14.785156 11.679688 14.402344 11.4375 13.902344 11.117188 C 13.320312 10.746094 12.578125 10.71875 11.972656 11.050781 L 12.007812 11.03125 L 11.535156 11.234375 L 11.5 11.257812 C 11.386719 11.339844 11.246094 11.355469 11.117188 11.300781 C 10.753906 11.148438 10.191406 10.851562 9.667969 10.332031 C 9.148438 9.808594 8.851562 9.246094 8.699219 8.882812 C 8.644531 8.753906 8.660156 8.613281 8.742188 8.5 L 8.765625 8.464844 L 8.96875 7.992188 L 8.949219 8.027344 C 9.28125 7.421875 9.257812 6.679688 8.882812 6.097656 C 8.5625 5.597656 8.320312 5.214844 8.160156 4.96875 C 7.957031 4.648438 7.609375 4.429688 7.21875 4.414062 Z M 7.183594 5.214844 C 7.296875 5.21875 7.414062 5.285156 7.488281 5.398438 C 7.644531 5.644531 7.890625 6.03125 8.210938 6.53125 C 8.421875 6.863281 8.4375 7.296875 8.25 7.644531 L 8.238281 7.660156 L 8.046875 8.113281 L 8.085938 8.039062 C 7.847656 8.375 7.800781 8.8125 7.960938 9.191406 C 8.140625 9.625 8.484375 10.277344 9.105469 10.894531 C 9.722656 11.515625 10.375 11.859375 10.808594 12.039062 C 11.1875 12.199219 11.625 12.152344 11.960938 11.914062 L 11.886719 11.953125 L 12.339844 11.761719 L 12.355469 11.75 C 12.703125 11.5625 13.136719 11.578125 13.46875 11.789062 C 13.96875 12.109375 14.355469 12.355469 14.601562 12.511719 C 14.714844 12.585938 14.78125 12.703125 14.785156 12.816406 C 14.8125 13.421875 14.601562 13.800781 14.359375 14.058594 C 14.238281 14.183594 14.105469 14.277344 13.996094 14.332031 C 13.886719 14.390625 13.78125 14.402344 13.824219 14.402344 C 13.75 14.402344 13.710938 14.40625 13.617188 14.40625 C 13.527344 14.410156 13.402344 14.410156 13.25 14.402344 C 12.949219 14.382812 12.527344 14.332031 12.023438 14.191406 C 11.011719 13.90625 9.65625 13.265625 8.195312 11.804688 C 6.734375 10.34375 6.09375 8.988281 5.808594 7.976562 C 5.667969 7.472656 5.617188 7.050781 5.597656 6.75 C 5.589844 6.597656 5.589844 6.472656 5.59375 6.382812 C 5.59375 6.289062 5.597656 6.25 5.597656 6.175781 C 5.597656 6.21875 5.609375 6.113281 5.667969 6.003906 C 5.722656 5.894531 5.816406 5.761719 5.941406 5.640625 C 6.199219 5.398438 6.578125 5.1875 7.183594 5.214844 Z M 7.183594 5.214844 "/>
</g>
</svg>
